<svg width="1000" height="423" viewBox="0 0 1000 423" fill="none" xmlns="http://www.w3.org/2000/svg">
<g clip-path="url(#clip0_202_2)">
<path d="M165.518 40.0664C197.907 40.0664 224.844 44.054 246.328 52.0293C267.812 59.8418 283.926 71.5605 294.668 87.1855C305.573 102.811 311.025 122.26 311.025 145.535C311.025 160.021 308.584 173.204 303.701 185.086C298.818 196.967 291.82 207.628 282.705 217.068C273.753 226.346 263.011 234.484 250.479 241.482L354.482 397H245.107L169.424 267.117H145.01V397H48.5742V40.0664H165.518ZM164.053 113.064H145.01V194.607H163.076C177.887 194.607 190.013 191.352 199.453 184.842C208.893 178.331 213.613 166.694 213.613 149.93C213.613 138.374 209.707 129.34 201.895 122.83C194.082 116.32 181.468 113.064 164.053 113.064ZM598.867 397H386.953V40.0664H598.867V117.459H483.389V173.611H590.322V251.004H483.389V318.387H598.867V397ZM964.346 210.965C964.346 252.469 956.615 286.974 941.152 314.48C925.69 341.987 903.88 362.658 875.723 376.492C847.728 390.164 814.769 397 776.846 397H661.367V40.0664H784.902C823.314 40.0664 855.866 46.6582 882.559 59.8418C909.251 73.0254 929.515 92.3125 943.35 117.703C957.347 143.094 964.346 174.181 964.346 210.965ZM864.248 214.383C864.248 192.736 861.318 174.832 855.459 160.672C849.762 146.349 841.136 135.688 829.58 128.689C818.024 121.528 803.457 117.947 785.879 117.947H757.803V317.898H779.287C808.584 317.898 830.068 309.435 843.74 292.508C857.412 275.418 864.248 249.376 864.248 214.383Z" fill="#FF4545"/>
</g>
<defs>
<clipPath id="clip0_202_2">
<rect width="1000" height="423" fill="white"/>
</clipPath>
</defs>
</svg>
