<svg width="296" height="70" viewBox="0 0 296 70" fill="none" xmlns="http://www.w3.org/2000/svg">
<path d="M114.4 44.2V27.3C114.4 21.4333 117.333 18.5 123.2 18.5H136.15L140.05 21.5V26.35H123.65C123.283 26.35 123.1 26.5333 123.1 26.9V44.6C123.1 44.9667 123.283 45.15 123.65 45.15H140.05V50L136.15 53H123.2C117.333 53 114.4 50.0667 114.4 44.2ZM152.943 53C147.343 53 144.543 50.2833 144.543 44.85C144.543 39.4167 147.343 36.7 152.943 36.7H158.693V34.3C158.693 33.8667 158.476 33.65 158.043 33.65H147.493V29L150.993 26.4H158.643C164.243 26.4 167.043 29.2 167.043 34.8V53H152.943ZM152.893 45.1C152.893 45.5333 153.11 45.75 153.543 45.75H158.693V43H153.543C153.11 43 152.893 43.2167 152.893 43.65V45.1ZM173.429 44.6V18.5H181.779V26.4H189.929V33.65H181.779V45.1C181.779 45.5333 181.995 45.75 182.429 45.75H190.429V50.4L186.929 53H181.829C176.229 53 173.429 50.2 173.429 44.6ZM202.65 53C197.05 53 194.25 50.2833 194.25 44.85C194.25 39.4167 197.05 36.7 202.65 36.7H208.4V34.3C208.4 33.8667 208.183 33.65 207.75 33.65H197.2V29L200.7 26.4H208.35C213.95 26.4 216.75 29.2 216.75 34.8V53H202.65ZM202.6 45.1C202.6 45.5333 202.817 45.75 203.25 45.75H208.4V43H203.25C202.817 43 202.6 43.2167 202.6 43.65V45.1ZM223.136 42.15V16H231.486V43C231.486 44.9667 232.502 46.0667 234.536 46.3V53.55C226.936 53.55 223.136 49.75 223.136 42.15ZM239.684 44.6V34.8C239.684 29.2 242.484 26.4 248.084 26.4H255.084C260.684 26.4 263.484 29.2 263.484 34.8V44.6C263.484 50.2 260.684 53 255.084 53H248.084C242.484 53 239.684 50.2 239.684 44.6ZM248.034 45.1C248.034 45.5333 248.25 45.75 248.684 45.75H254.484C254.917 45.75 255.134 45.5333 255.134 45.1V34.3C255.134 33.8667 254.917 33.65 254.484 33.65H248.684C248.25 33.65 248.034 33.8667 248.034 34.3V45.1ZM269.169 44.6V34.8C269.169 29.2 271.969 26.4 277.569 26.4H292.469V54.6C292.469 60.2 289.669 63 284.069 63H275.069L271.569 60.4V55.75H283.469C283.902 55.75 284.119 55.5333 284.119 55.1V53H277.569C271.969 53 269.169 50.2 269.169 44.6ZM277.519 45.1C277.519 45.5333 277.735 45.75 278.169 45.75H284.119V33.65H278.169C277.735 33.65 277.519 33.8667 277.519 34.3V45.1Z" fill="#999999"/>
<path d="M15.5518 17.3066C18.7907 17.3066 21.4844 17.7054 23.6328 18.5029C25.7812 19.2842 27.3926 20.4561 28.4668 22.0186C29.5573 23.5811 30.1025 25.526 30.1025 27.8535C30.1025 29.3021 29.8584 30.6204 29.3701 31.8086C28.8818 32.9967 28.182 34.0628 27.2705 35.0068C26.3753 35.9346 25.3011 36.7484 24.0479 37.4482L34.4482 53H23.5107L15.9424 40.0117H13.501V53H3.85742V17.3066H15.5518ZM15.4053 24.6064H13.501V32.7607H15.3076C16.7887 32.7607 18.0013 32.4352 18.9453 31.7842C19.8893 31.1331 20.3613 29.9694 20.3613 28.293C20.3613 27.1374 19.9707 26.234 19.1895 25.583C18.4082 24.932 17.1468 24.6064 15.4053 24.6064ZM58.8867 53H37.6953V17.3066H58.8867V25.0459H47.3389V30.6611H58.0322V38.4004H47.3389V45.1387H58.8867V53ZM95.4346 34.3965C95.4346 38.5469 94.6615 41.9974 93.1152 44.748C91.569 47.4987 89.388 49.5658 86.5723 50.9492C83.7728 52.3164 80.4769 53 76.6846 53H65.1367V17.3066H77.4902C81.3314 17.3066 84.5866 17.9658 87.2559 19.2842C89.9251 20.6025 91.9515 22.5312 93.335 25.0703C94.7347 27.6094 95.4346 30.7181 95.4346 34.3965ZM85.4248 34.7383C85.4248 32.5736 85.1318 30.7832 84.5459 29.3672C83.9762 27.9349 83.1136 26.8688 81.958 26.1689C80.8024 25.4528 79.3457 25.0947 77.5879 25.0947H74.7803V45.0898H76.9287C79.8584 45.0898 82.0068 44.2435 83.374 42.5508C84.7412 40.8418 85.4248 38.2376 85.4248 34.7383Z" fill="#FF4545"/>
</svg>
