<svg width="1000" height="641" viewBox="0 0 1000 641" fill="none" xmlns="http://www.w3.org/2000/svg">
<g clip-path="url(#clip0_6_56)">
<path d="M165.518 40.0664C197.907 40.0664 224.844 44.054 246.328 52.0293C267.812 59.8418 283.926 71.5605 294.668 87.1855C305.573 102.811 311.025 122.26 311.025 145.535C311.025 160.021 308.584 173.204 303.701 185.086C298.818 196.967 291.82 207.628 282.705 217.068C273.753 226.346 263.011 234.484 250.479 241.482L354.482 397H245.107L169.424 267.117H145.01V397H48.5742V40.0664H165.518ZM164.053 113.064H145.01V194.607H163.076C177.887 194.607 190.013 191.352 199.453 184.842C208.893 178.331 213.613 166.694 213.613 149.93C213.613 138.374 209.707 129.34 201.895 122.83C194.082 116.32 181.468 113.064 164.053 113.064ZM598.867 397H386.953V40.0664H598.867V117.459H483.389V173.611H590.322V251.004H483.389V318.387H598.867V397ZM964.346 210.965C964.346 252.469 956.615 286.974 941.152 314.48C925.69 341.987 903.88 362.658 875.723 376.492C847.728 390.164 814.769 397 776.846 397H661.367V40.0664H784.902C823.314 40.0664 855.866 46.6582 882.559 59.8418C909.251 73.0254 929.515 92.3125 943.35 117.703C957.347 143.094 964.346 174.181 964.346 210.965ZM864.248 214.383C864.248 192.736 861.318 174.832 855.459 160.672C849.762 146.349 841.136 135.688 829.58 128.689C818.024 121.528 803.457 117.947 785.879 117.947H757.803V317.898H779.287C808.584 317.898 830.068 309.435 843.74 292.508C857.412 275.418 864.248 249.376 864.248 214.383Z" fill="#FF4545"/>
<path d="M160.04 543.24V474.21C160.04 452.37 170.96 441.45 192.8 441.45H244.865L257.93 451.59V466.8H193.97C190.07 466.8 188.12 468.75 188.12 472.65V544.8C188.12 548.7 190.07 550.65 193.97 550.65H257.93V565.86L244.865 576H192.8C170.96 576 160.04 565.08 160.04 543.24ZM307.855 576C286.795 576 276.265 565.665 276.265 544.995C276.265 524.325 286.795 513.99 307.855 513.99H334.765V502.68C334.765 498.52 332.685 496.44 328.525 496.44H287.185V481.815L298.885 473.04H330.085C351.145 473.04 361.675 483.57 361.675 504.63V576H307.855ZM303.175 546.36C303.175 550.52 305.255 552.6 309.415 552.6H334.765V534.66H309.415C305.255 534.66 303.175 536.74 303.175 540.9V546.36ZM388.156 544.41V441.45H415.066V473.04H448.606V496.44H415.066V546.36C415.066 550.52 417.146 552.6 421.306 552.6H450.556V567.225L438.856 576H419.746C398.686 576 388.156 565.47 388.156 544.41ZM497.713 576C476.653 576 466.123 565.665 466.123 544.995C466.123 524.325 476.653 513.99 497.713 513.99H524.623V502.68C524.623 498.52 522.543 496.44 518.383 496.44H477.043V481.815L488.743 473.04H519.943C541.003 473.04 551.533 483.57 551.533 504.63V576H497.713ZM493.033 546.36C493.033 550.52 495.113 552.6 499.273 552.6H524.623V534.66H499.273C495.113 534.66 493.033 536.74 493.033 540.9V546.36ZM578.015 538.56V431.7H604.925V541.29C604.925 549.35 609.085 553.835 617.405 554.745V577.95C591.145 577.95 578.015 564.82 578.015 538.56ZM637.601 544.41V504.63C637.601 483.57 648.131 473.04 669.191 473.04H696.491C717.551 473.04 728.081 483.57 728.081 504.63V544.41C728.081 565.47 717.551 576 696.491 576H669.191C648.131 576 637.601 565.47 637.601 544.41ZM664.511 546.36C664.511 550.52 666.591 552.6 670.751 552.6H694.931C699.091 552.6 701.171 550.52 701.171 546.36V502.68C701.171 498.52 699.091 496.44 694.931 496.44H670.751C666.591 496.44 664.511 498.52 664.511 502.68V546.36ZM752.221 544.41V504.63C752.221 483.57 762.751 473.04 783.811 473.04H840.751V583.41C840.751 604.47 830.221 615 809.161 615H772.696L760.996 606.225V591.6H807.601C811.761 591.6 813.841 589.52 813.841 585.36V576H783.811C762.751 576 752.221 565.47 752.221 544.41ZM779.131 546.36C779.131 550.52 781.211 552.6 785.371 552.6H813.841V496.44H785.371C781.211 496.44 779.131 498.52 779.131 502.68V546.36Z" fill="#C2C2C2"/>
</g>
<defs>
<clipPath id="clip0_6_56">
<rect width="1000" height="641" fill="white"/>
</clipPath>
</defs>
</svg>
